<svg fill="green" id="Capa_1" enable-background="new 0 0 512 512" height="512" viewBox="0 0 512 512" width="512" xmlns="http://www.w3.org/2000/svg"><g><path d="m175.222 386.725 12.567 32.675c-36.538 6.926-64.262 39.077-64.262 77.6v15h328.667v-15c0-43.56-35.44-79-79-79h-4.467l-12.029-31.275z"/><path d="m430.861 248.745v-248.745h-117.213l-38.637 38.637c-31.764-25.129-76.927-27.531-111.318-4.742l-6.715 4.449-.001 37.519 101.749 104.921h40.691l4.449-6.715c23.559-35.556 20.196-82.623-7.369-114.495l29.577-29.574h74.787v205.109z"/><path d="m465.857 297.606-75.534-34.333h-184.77l-85.14-72.042c-14.294-12.095-32.031-18.569-50.546-18.569-2.206 0-4.422.092-6.645.277-20.883 1.74-39.839 11.509-53.374 27.506l-9.689 11.451 171.161 144.829h198.762l128.524 58.421 6.207-13.656c17.901-39.381.425-85.984-38.956-103.884z"/></g></svg>